<svg xmlns="http://www.w3.org/2000/svg" width="1440" height="980" viewBox="0 0 1440 980" fill="none">
  <defs>
    <linearGradient id="bg" x1="0" y1="0" x2="1440" y2="980" gradientUnits="userSpaceOnUse">
      <stop stop-color="#F7F3EA"/>
      <stop offset="1" stop-color="#EEF4FB"/>
    </linearGradient>
    <linearGradient id="card" x1="0" y1="0" x2="1" y2="1">
      <stop stop-color="#FFFFFF"/>
      <stop offset="1" stop-color="#F8FAFC"/>
    </linearGradient>
    <filter id="shadow" x="-20%" y="-20%" width="140%" height="160%">
      <feDropShadow dx="0" dy="16" stdDeviation="20" flood-color="#102A43" flood-opacity="0.12"/>
    </filter>
    <style>
      .title { font: 700 48px 'PingFang SC','Noto Sans CJK SC','Microsoft YaHei',sans-serif; fill: #102A43; }
      .subtitle { font: 500 22px 'PingFang SC','Noto Sans CJK SC','Microsoft YaHei',sans-serif; fill: #486581; }
      .cardTitle { font: 700 24px 'PingFang SC','Noto Sans CJK SC','Microsoft YaHei',sans-serif; fill: #102A43; }
      .score { font: 700 24px 'SFMono-Regular','Menlo','Consolas',monospace; fill: #7C2D12; }
      .body { font: 500 18px 'PingFang SC','Noto Sans CJK SC','Microsoft YaHei',sans-serif; fill: #334E68; }
      .badge { font: 700 16px 'SFMono-Regular','Menlo','Consolas',monospace; fill: #102A43; }
      .footer { font: 700 20px 'PingFang SC','Noto Sans CJK SC','Microsoft YaHei',sans-serif; fill: #243B53; }
    </style>
  </defs>

  <rect width="1440" height="980" fill="url(#bg)"/>

  <text x="84" y="96" class="title">按落地赛五维看 Roboclaws</text>
  <text x="84" y="136" class="subtitle">让评委扫一眼就知道：这个项目在哪些维度最强，证据落在哪里</text>

  <g filter="url(#shadow)">
    <rect x="78" y="184" width="398" height="220" rx="28" fill="url(#card)"/>
    <rect x="104" y="212" width="140" height="42" rx="14" fill="#FDE68A"/>
    <text x="132" y="239" class="score">20 分</text>
    <text x="104" y="286" class="cardTitle">需求匹配度</text>
    <text x="104" y="324" class="body">真实痛点不是“机器人会不会动”，而是：</text>
    <text x="104" y="352" class="body">调 skill 后，工程师能不能快速判断这轮更好了没有。</text>
    <text x="104" y="386" class="badge">证据：Run 001–005 + self-improvement loop 设计文档</text>
  </g>

  <g filter="url(#shadow)">
    <rect x="522" y="184" width="398" height="220" rx="28" fill="url(#card)"/>
    <rect x="548" y="212" width="140" height="42" rx="14" fill="#FCA5A5"/>
    <text x="576" y="239" class="score">25 分</text>
    <text x="548" y="286" class="cardTitle">落地可行性</text>
    <text x="548" y="324" class="body">有命令、有产物、有 trace、有 live report，</text>
    <text x="548" y="352" class="body">不是只放视频和 markdown 的概念提交。</text>
    <text x="548" y="386" class="badge">证据：just harness::run + trace.jsonl + report_compare</text>
  </g>

  <g filter="url(#shadow)">
    <rect x="966" y="184" width="398" height="220" rx="28" fill="url(#card)"/>
    <rect x="992" y="212" width="140" height="42" rx="14" fill="#C7D2FE"/>
    <text x="1020" y="239" class="score">25 分</text>
    <text x="992" y="286" class="cardTitle">业务价值</text>
    <text x="992" y="324" class="body">真正的 ROI 是：把“工程师持续盯屏”</text>
    <text x="992" y="352" class="body">压缩成“run 结束后 review logbook”。</text>
    <text x="992" y="386" class="badge">证据：127+ calls → 37 calls，Run 004 真实 bug</text>
  </g>

  <g filter="url(#shadow)">
    <rect x="78" y="446" width="620" height="240" rx="28" fill="url(#card)"/>
    <rect x="104" y="474" width="140" height="42" rx="14" fill="#99F6E4"/>
    <text x="132" y="501" class="score">15 分</text>
    <text x="104" y="548" class="cardTitle">用户体验</text>
    <text x="104" y="586" class="body">评委和工程师都不需要读原始 trace 才能判断结果，</text>
    <text x="104" y="614" class="body">run logbook 和 5 分钟自助验证路径足够低门槛。</text>
    <text x="104" y="650" class="badge">证据：EVALUATION_GUIDE + runs-log + just harness::history</text>
  </g>

  <g filter="url(#shadow)">
    <rect x="742" y="446" width="622" height="240" rx="28" fill="url(#card)"/>
    <rect x="768" y="474" width="140" height="42" rx="14" fill="#F9A8D4"/>
    <text x="796" y="501" class="score">15 分</text>
    <text x="768" y="548" class="cardTitle">可复用性</text>
    <text x="768" y="586" class="body">不是 photo task 专用脚本，而是一层稳定边界：</text>
    <text x="768" y="614" class="body">engine / MCP contract / SKILL.md / task format / run artifact。</text>
    <text x="768" y="650" class="badge">证据：4 modes + MultiAgentEngine + skills/ai2thor-navigator</text>
  </g>

  <g filter="url(#shadow)">
    <rect x="78" y="730" width="1286" height="166" rx="30" fill="#102A43"/>
    <text x="118" y="786" class="footer" fill="#F8FAFC">评委给高分时，最该抓的不是“它有没有一段好看的视频”，而是：</text>
    <text x="118" y="824" class="footer" fill="#F8FAFC">每个高分维度都能不能指回具体文件、具体命令、具体 run、具体 bug、具体 report。</text>
    <text x="118" y="860" class="footer" fill="#D9E2EC">Roboclaws 这次材料的优化重点，就是把这些证据点组织得更容易被看见。</text>
  </g>
</svg>
