<svg xmlns="http://www.w3.org/2000/svg" viewBox="0 0 1280 720" role="img" aria-labelledby="title desc">
  <title id="title">Roboclaws April 2026 checkpoint responsibility flow</title>
  <desc id="desc">A responsibility-oriented flow from perception to memory, planning, skills, actions, communication, and evidence.</desc>
  <defs>
    <linearGradient id="bg" x1="0" x2="1" y1="0" y2="1"><stop offset="0" stop-color="#fbf7ef"/><stop offset="0.48" stop-color="#f4fbf7"/><stop offset="1" stop-color="#edf6ff"/></linearGradient>
    <filter id="shadow" x="-10%" y="-14%" width="120%" height="132%"><feDropShadow dx="0" dy="12" stdDeviation="12" flood-color="#2d3c43" flood-opacity="0.14"/></filter>
    <style>.title{font:800 34px "Aptos Display","Noto Sans CJK SC","Segoe UI",sans-serif;fill:#17313d}.subtitle{font:500 18px "Aptos","Noto Sans CJK SC","Segoe UI",sans-serif;fill:#52646c}.node-title{font:800 18px "Aptos Display","Noto Sans CJK SC","Segoe UI",sans-serif;fill:#172f39}.node-copy{font:500 14px "Aptos","Noto Sans CJK SC","Segoe UI",sans-serif;fill:#536972}.lane{font:800 16px "Aptos Display","Noto Sans CJK SC","Segoe UI",sans-serif;fill:#fff;letter-spacing:.04em}.evidence{font:700 15px "Aptos","Noto Sans CJK SC","Segoe UI",sans-serif;fill:#1d3a45}.tiny{font:600 12px "Aptos","Noto Sans CJK SC","Segoe UI",sans-serif;fill:#5d737b}</style>
  </defs>
  <rect width="1280" height="720" fill="url(#bg)"/><path d="M-90 560 C180 440 290 760 570 604 C850 448 1040 520 1370 388" fill="none" stroke="#d8eee4" stroke-width="98" opacity=".72"/>
  <text x="64" y="64" class="title">April 2026 diff view: responsibilities</text><text x="64" y="96" class="subtitle">Use this view when deciding which module owns a behavior: view rendering, memory, planning, action, communication, or artifact evidence.</text>
  <g filter="url(#shadow)"><rect x="58" y="164" width="168" height="180" rx="26" fill="#fff"/><rect x="250" y="164" width="168" height="180" rx="26" fill="#fff"/><rect x="442" y="164" width="168" height="180" rx="26" fill="#fff"/><rect x="634" y="164" width="168" height="180" rx="26" fill="#fff"/><rect x="826" y="164" width="168" height="180" rx="26" fill="#fff"/><rect x="1018" y="164" width="204" height="180" rx="26" fill="#fff"/></g>
  <g><rect x="82" y="190" width="120" height="34" rx="17" fill="#2d7d93"/><text x="142" y="212" text-anchor="middle" class="lane">PERCEPTION</text><text x="142" y="252" text-anchor="middle" class="node-title">views.py</text><text x="142" y="280" text-anchor="middle" class="node-copy">FPV</text><text x="142" y="302" text-anchor="middle" class="node-copy">map-v2</text><text x="142" y="324" text-anchor="middle" class="node-copy">chase cam</text></g>
  <g><rect x="274" y="190" width="120" height="34" rx="17" fill="#8a6f2b"/><text x="334" y="212" text-anchor="middle" class="lane">MEMORY</text><text x="334" y="252" text-anchor="middle" class="node-title">SOUL / MEMORY</text><text x="334" y="280" text-anchor="middle" class="node-copy">persona</text><text x="334" y="302" text-anchor="middle" class="node-copy">episode notes</text><text x="334" y="324" text-anchor="middle" class="node-copy">future ablation</text></g>
  <g><rect x="466" y="190" width="120" height="34" rx="17" fill="#b85f37"/><text x="526" y="212" text-anchor="middle" class="lane">PLANNING</text><text x="526" y="252" text-anchor="middle" class="node-title">model driver</text><text x="526" y="280" text-anchor="middle" class="node-copy">VLM JSON</text><text x="526" y="302" text-anchor="middle" class="node-copy">CodeAgent</text><text x="526" y="324" text-anchor="middle" class="node-copy">harness judge</text></g>
  <g><rect x="658" y="190" width="120" height="34" rx="17" fill="#586bb6"/><text x="718" y="212" text-anchor="middle" class="lane">SKILL</text><text x="718" y="252" text-anchor="middle" class="node-title">SKILL.md</text><text x="718" y="280" text-anchor="middle" class="node-copy">operator rules</text><text x="718" y="302" text-anchor="middle" class="node-copy">safe fallback</text><text x="718" y="324" text-anchor="middle" class="node-copy">trace discipline</text></g>
  <g><rect x="850" y="190" width="120" height="34" rx="17" fill="#0e8a78"/><text x="910" y="212" text-anchor="middle" class="lane">ACTION</text><text x="910" y="252" text-anchor="middle" class="node-title">MCP tools</text><text x="910" y="280" text-anchor="middle" class="node-copy">observe</text><text x="910" y="302" text-anchor="middle" class="node-copy">move</text><text x="910" y="324" text-anchor="middle" class="node-copy">done</text></g>
  <g><rect x="1046" y="190" width="148" height="34" rx="17" fill="#31546d"/><text x="1120" y="212" text-anchor="middle" class="lane">COMMUNICATION</text><text x="1120" y="252" text-anchor="middle" class="node-title">Gateway / trace</text><text x="1120" y="280" text-anchor="middle" class="node-copy">OpenClaw sessions</text><text x="1120" y="302" text-anchor="middle" class="node-copy">trace.jsonl</text><text x="1120" y="324" text-anchor="middle" class="node-copy">report.html</text></g>
  <g stroke="#9eb2b7" stroke-width="4" stroke-linecap="round" fill="none"><path d="M226 254 H248"/><path d="M418 254 H440"/><path d="M610 254 H632"/><path d="M802 254 H824"/><path d="M994 254 H1016"/></g><g fill="#9eb2b7"><path d="M248 254 l-10 -6 v12z"/><path d="M440 254 l-10 -6 v12z"/><path d="M632 254 l-10 -6 v12z"/><path d="M824 254 l-10 -6 v12z"/><path d="M1016 254 l-10 -6 v12z"/></g>
  <g filter="url(#shadow)"><rect x="138" y="440" width="1004" height="136" rx="32" fill="#fff" opacity=".96"/></g><text x="640" y="482" text-anchor="middle" class="evidence">Evidence loop: every responsibility should leave a runnable artifact</text><text x="226" y="528" text-anchor="middle" class="tiny">frames/</text><text x="386" y="528" text-anchor="middle" class="tiny">snapshot labels</text><text x="546" y="528" text-anchor="middle" class="tiny">prompt + response</text><text x="706" y="528" text-anchor="middle" class="tiny">tool call trace</text><text x="866" y="528" text-anchor="middle" class="tiny">score + cost</text><text x="1026" y="528" text-anchor="middle" class="tiny">report.html</text><path d="M222 506 H1034" stroke="#d0dee2" stroke-width="4" stroke-linecap="round"/><circle cx="226" cy="506" r="9" fill="#2d7d93"/><circle cx="386" cy="506" r="9" fill="#8a6f2b"/><circle cx="546" cy="506" r="9" fill="#b85f37"/><circle cx="706" cy="506" r="9" fill="#586bb6"/><circle cx="866" cy="506" r="9" fill="#0e8a78"/><circle cx="1026" cy="506" r="9" fill="#31546d"/>
</svg>
